<svg xmlns="http://www.w3.org/2000/svg" version="1.1" xmlns:xlink="http://www.w3.org/1999/xlink" xmlns:svgjs="http://svgjs.dev/svgjs" width="1000" height="184" viewBox="0 0 1000 184"><g transform="matrix(1,0,0,1,-0.6060606060606801,-0.06490656283472163)"><svg viewBox="0 0 396 73" data-background-color="#ffffff" preserveAspectRatio="xMidYMid meet" height="184" width="1000" xmlns="http://www.w3.org/2000/svg" xmlns:xlink="http://www.w3.org/1999/xlink"><g id="tight-bounds" transform="matrix(1,0,0,1,0.24000000000003752,0.0257509732985568)"><svg viewBox="0 0 395.5199999999999 72.94849805340289" height="72.94849805340289" width="395.5199999999999"><g><svg viewBox="0 0 504.4530075778723 93.03976851063828" height="72.94849805340289" width="395.5199999999999"><g transform="matrix(1,0,0,1,0,12.858607659574467)"><svg viewBox="0 0 395.52 67.32255319148935" height="67.32255319148935" width="395.52"><g id="textblocktransform"><svg viewBox="0 0 395.52 67.32255319148935" height="67.32255319148935" width="395.52" id="textblock"><g><svg viewBox="0 0 395.52 67.32255319148935" height="67.32255319148935" width="395.52"><g transform="matrix(1,0,0,1,0,0)"><svg width="395.52" viewBox="0 -50 293.739990234375 43.75" height="67.32255319148935" data-palette-color="#4790fc"><path d="M37.5-6.25L6.25-6.25 6.25-12.5 0-12.5 0-18.75 12.5-18.75 12.5-12.5 31.25-12.5 31.25-50 43.75-50 43.75-12.5 37.5-12.5 37.5-6.25ZM87.5-6.25L56.25-6.25 56.25-12.5 50-12.5 50-18.75 62.5-18.75 62.5-12.5 81.25-12.5 81.25-25 56.25-25 56.25-31.25 50-31.25 50-43.75 56.25-43.75 56.25-50 87.5-50 87.5-43.75 93.75-43.75 93.75-37.5 81.25-37.5 81.25-43.75 62.5-43.75 62.5-31.25 87.5-31.25 87.5-25 93.75-25 93.75-12.5 87.5-12.5 87.5-6.25ZM181.24-6.25L149.99-6.25 149.99-50 181.24-50 181.24-43.75 187.49-43.75 187.49-37.5 193.74-37.5 193.74-18.75 187.49-18.75 187.49-12.5 181.24-12.5 181.24-6.25ZM162.49-43.75L162.49-12.5 174.99-12.5 174.99-18.75 181.24-18.75 181.24-37.5 174.99-37.5 174.99-43.75 162.49-43.75ZM243.74-6.25L199.99-6.25 199.99-50 243.74-50 243.74-43.75 212.49-43.75 212.49-31.25 237.49-31.25 237.49-25 212.49-25 212.49-12.5 243.74-12.5 243.74-6.25ZM274.99-6.25L268.74-6.25 268.74-12.5 262.49-12.5 262.49-18.75 256.24-18.75 256.24-25 249.99-25 249.99-50 262.49-50 262.49-31.25 268.74-31.25 268.74-25 274.99-25 274.99-31.25 281.24-31.25 281.24-50 293.74-50 293.74-25 287.49-25 287.49-18.75 281.24-18.75 281.24-12.5 274.99-12.5 274.99-6.25Z" opacity="1" transform="matrix(1,0,0,1,0,0)" fill="#4790fc" class="wordmark-text-0" data-fill-palette-color="primary" id="text-0"></path></svg></g></svg></g></svg></g></svg></g><g transform="matrix(1,0,0,1,411.41323906723403,0)"><svg viewBox="0 0 93.03976851063828 93.03976851063828" height="93.03976851063828" width="93.03976851063828"><g data-palette-color="#ffffff"><rect width="25.430870059574463" height="93.03976851063828" fill="#ffffff" stroke="transparent" data-fill-palette-color="accent" x="0" fill-opacity="1"></rect><rect width="25.430870059574463" height="93.03976851063828" fill="#ffffff" stroke="transparent" data-fill-palette-color="accent" x="31.01325617021276" fill-opacity="0.75"></rect><rect width="25.430870059574463" height="93.03976851063828" fill="#ffffff" stroke="transparent" data-fill-palette-color="accent" x="62.02651234042552" fill-opacity="0.5"></rect></g></svg></g></svg></g><defs></defs></svg><rect width="395.5199999999999" height="72.94849805340289" fill="none" stroke="none" visibility="hidden"></rect></g></svg></g></svg>